# xmcd
#
# Track frame offsets:
#	150
#	14677
#	35040
#	51227
#	70297
#	84152
#	100675
#	113485
#	129540
#	142615
#	158610
#
# Disc length: 2284 seconds
#
# Revision: 0
# Processed by: cddbd v1.4PL0 Copyright (c) Steve Scherf et al.
# Submitted via: EasyCDDAExtractor 5.0.4.1
#
DISCID=8408ea0b
DTITLE=Various Artist - El Album Del Millón
DYEAR=1998
DGENRE=Grupera
TTITLE0=Limite - Esto Que Siento
TTITLE1=Caballo Dorado - Un Chico Loco
TTITLE2=Limite - Me Ire De Aqui
TTITLE3=Caballo Dorado - Payaso De Rodeo
TTITLE4=Limite - Vete
TTITLE5=Caballo Dorado - No Rompas Mi Corazón
TTITLE6=Limite - Mirame
TTITLE7=Caballo Dorado - Solo Contigo
TTITLE8=Limite - Para Ser Feliz
TTITLE9=Caballo Dorado - Hoy Hare
TTITLE10=Limite - Estoy Aqui
EXTD=
EXTT0=
EXTT1=
EXTT2=
EXTT3=
EXTT4=
EXTT5=
EXTT6=
EXTT7=
EXTT8=
EXTT9=
EXTT10=
PLAYORDER=
